<?xml version="1.0" standalone="no"?><?xml-stylesheet type="text/css" href="https://www.processon.com/themes/default/mind/icons/icons.css" ?><!DOCTYPE svg PUBLIC "-//W3C//DTD SVG 1.1//EN" "http://www.w3.org/Graphics/SVG/1.1/DTD/svg11.dtd"><svg id="SvgjsSvg1000" xmlns="http://www.w3.org/2000/svg" version="1.1" xmlns:xlink="http://www.w3.org/1999/xlink" xmlns:svgjs="http://svgjs.com/svgjs" width="535.109375" height="383.125"><rect fill="url(#pattern_mark)" transform="translate(-228.140625,-132.75)" width="957" height="692" id="rect_mark" pointer-events="none"></rect><defs id="SvgjsDefs1001"><pattern patternUnits="userSpaceOnUse" id="pattern_mark" width="300" height="300"><text x="-50" y="150" fill="rgba(229,229,229,0.8)" font-size="18" transform="rotate(-45, 150, 150)"></text></pattern></defs><g id="SvgjsG1007" transform="translate(25.01089015151524,56.25)"><path id="SvgjsPath1008" d="M0 0L60 0L60 30L0 30Z " stroke="rgba(50,50,50,1)" stroke-width="2" fill-opacity="1" fill="#ffffff"></path><g id="SvgjsG1009"><text id="SvgjsText1010" font-family="微软雅黑" text-anchor="middle" font-size="13px" width="40px" fill="#323232" font-weight="400" align="middle" lineHeight="125%" font-style="" opacity="1" y="4.375" transform="rotate(0)"></text></g></g><g id="SvgjsG1011" transform="translate(84.66823425758525,56.25)"><path id="SvgjsPath1012" d="M0 0L60 0L60 30L0 30Z " stroke="rgba(50,50,50,1)" stroke-width="2" fill-opacity="1" fill="#ffffff"></path><g id="SvgjsG1013"><text id="SvgjsText1014" font-family="微软雅黑" text-anchor="middle" font-size="13px" width="40px" fill="#323232" font-weight="400" align="middle" lineHeight="125%" font-style="" opacity="1" y="4.375" transform="rotate(0)"></text></g></g><g id="SvgjsG1015" transform="translate(145.82557836365527,56.25)"><path id="SvgjsPath1016" d="M0 0L60 0L60 30L0 30Z " stroke="rgba(50,50,50,1)" stroke-width="2" fill-opacity="1" fill="#ffffff"></path><g id="SvgjsG1017"><text id="SvgjsText1018" font-family="微软雅黑" text-anchor="middle" font-size="13px" width="40px" fill="#323232" font-weight="400" align="middle" lineHeight="125%" font-style="" opacity="1" y="4.375" transform="rotate(0)"></text></g></g><g id="SvgjsG1019" transform="translate(206.98292246972528,56.25)"><path id="SvgjsPath1020" d="M0 0L60 0L60 30L0 30Z " stroke="rgba(50,50,50,1)" stroke-width="2" fill-opacity="1" fill="#ffffff"></path><g id="SvgjsG1021"><text id="SvgjsText1022" font-family="微软雅黑" text-anchor="middle" font-size="13px" width="40px" fill="#323232" font-weight="400" align="middle" lineHeight="125%" font-style="" opacity="1" y="4.375" transform="rotate(0)"></text></g></g><g id="SvgjsG1023" transform="translate(268.1402665757952,56.25)"><path id="SvgjsPath1024" d="M0 0L60 0L60 30L0 30Z " stroke="rgba(50,50,50,1)" stroke-width="2" fill-opacity="1" fill="#ffffff"></path><g id="SvgjsG1025"><text id="SvgjsText1026" font-family="微软雅黑" text-anchor="middle" font-size="13px" width="40px" fill="#323232" font-weight="400" align="middle" lineHeight="125%" font-style="" opacity="1" y="4.375" transform="rotate(0)"></text></g></g><g id="SvgjsG1027" transform="translate(327.7976106818652,56.25)"><path id="SvgjsPath1028" d="M0 0L60 0L60 30L0 30Z " stroke="rgba(50,50,50,1)" stroke-width="2" fill-opacity="1" fill="#ffffff"></path><g id="SvgjsG1029"><text id="SvgjsText1030" font-family="微软雅黑" text-anchor="middle" font-size="13px" width="40px" fill="#323232" font-weight="400" align="middle" lineHeight="125%" font-style="" opacity="1" y="4.375" transform="rotate(0)"></text></g></g><g id="SvgjsG1031" transform="translate(388.9549547879352,56.25)"><path id="SvgjsPath1032" d="M0 0L60 0L60 30L0 30Z " stroke="rgba(50,50,50,1)" stroke-width="2" fill-opacity="1" fill="#ffffff"></path><g id="SvgjsG1033"><text id="SvgjsText1034" font-family="微软雅黑" text-anchor="middle" font-size="13px" width="40px" fill="#323232" font-weight="400" align="middle" lineHeight="125%" font-style="" opacity="1" y="4.375" transform="rotate(0)"></text></g></g><g id="SvgjsG1035" transform="translate(450.1122988940052,56.25)"><path id="SvgjsPath1036" d="M0 0L60 0L60 30L0 30Z " stroke="rgba(50,50,50,1)" stroke-width="2" fill-opacity="1" fill="#ffffff"></path><g id="SvgjsG1037"><text id="SvgjsText1038" font-family="微软雅黑" text-anchor="middle" font-size="13px" width="40px" fill="#323232" font-weight="400" align="middle" lineHeight="125%" font-style="" opacity="1" y="4.375" transform="rotate(0)"></text></g></g><g id="SvgjsG1039" transform="translate(25.01089015151524,200.7954545454544)"><path id="SvgjsPath1040" d="M0 0L60 0L60 30L0 30Z " stroke="rgba(50,50,50,1)" stroke-width="2" fill-opacity="1" fill="#ffffff"></path><g id="SvgjsG1041"><text id="SvgjsText1042" font-family="微软雅黑" text-anchor="middle" font-size="13px" width="40px" fill="#323232" font-weight="400" align="middle" lineHeight="125%" font-style="" opacity="1" y="4.375" transform="rotate(0)"></text></g></g><g id="SvgjsG1043" transform="translate(84.66823425758525,200.7954545454544)"><path id="SvgjsPath1044" d="M0 0L60 0L60 30L0 30Z " stroke="rgba(50,50,50,1)" stroke-width="2" fill-opacity="1" fill="#ffffff"></path><g id="SvgjsG1045"><text id="SvgjsText1046" font-family="微软雅黑" text-anchor="middle" font-size="13px" width="40px" fill="#323232" font-weight="400" align="middle" lineHeight="125%" font-style="" opacity="1" y="4.375" transform="rotate(0)"></text></g></g><g id="SvgjsG1047" transform="translate(145.82557836365527,200.7954545454544)"><path id="SvgjsPath1048" d="M0 0L60 0L60 30L0 30Z " stroke="rgba(50,50,50,1)" stroke-width="2" fill-opacity="1" fill="#ffffff"></path><g id="SvgjsG1049"><text id="SvgjsText1050" font-family="微软雅黑" text-anchor="middle" font-size="13px" width="40px" fill="#323232" font-weight="400" align="middle" lineHeight="125%" font-style="" opacity="1" y="4.375" transform="rotate(0)"></text></g></g><g id="SvgjsG1051" transform="translate(206.98292246972528,200.7954545454544)"><path id="SvgjsPath1052" d="M0 0L60 0L60 30L0 30Z " stroke="rgba(50,50,50,1)" stroke-width="2" fill-opacity="1" fill="#ffffff"></path><g id="SvgjsG1053"><text id="SvgjsText1054" font-family="微软雅黑" text-anchor="middle" font-size="13px" width="40px" fill="#323232" font-weight="400" align="middle" lineHeight="125%" font-style="" opacity="1" y="4.375" transform="rotate(0)"></text></g></g><g id="SvgjsG1055" transform="translate(268.14026657579643,200.7954545454544)"><path id="SvgjsPath1056" d="M0 0L60 0L60 30L0 30Z " stroke="rgba(50,50,50,1)" stroke-width="2" fill-opacity="1" fill="#ffffff"></path><g id="SvgjsG1057"><text id="SvgjsText1058" font-family="微软雅黑" text-anchor="middle" font-size="13px" width="40px" fill="#323232" font-weight="400" align="middle" lineHeight="125%" font-style="" opacity="1" y="4.375" transform="rotate(0)"></text></g></g><g id="SvgjsG1059" transform="translate(327.79761068186644,200.7954545454544)"><path id="SvgjsPath1060" d="M0 0L60 0L60 30L0 30Z " stroke="rgba(50,50,50,1)" stroke-width="2" fill-opacity="1" fill="#ffffff"></path><g id="SvgjsG1061"><text id="SvgjsText1062" font-family="微软雅黑" text-anchor="middle" font-size="13px" width="40px" fill="#323232" font-weight="400" align="middle" lineHeight="125%" font-style="" opacity="1" y="4.375" transform="rotate(0)"></text></g></g><g id="SvgjsG1063" transform="translate(388.95495478793646,200.7954545454544)"><path id="SvgjsPath1064" d="M0 0L60 0L60 30L0 30Z " stroke="rgba(50,50,50,1)" stroke-width="2" fill-opacity="1" fill="#ffffff"></path><g id="SvgjsG1065"><text id="SvgjsText1066" font-family="微软雅黑" text-anchor="middle" font-size="13px" width="40px" fill="#323232" font-weight="400" align="middle" lineHeight="125%" font-style="" opacity="1" y="4.375" transform="rotate(0)"></text></g></g><g id="SvgjsG1067" transform="translate(450.11229889400647,200.7954545454544)"><path id="SvgjsPath1068" d="M0 0L60 0L60 30L0 30Z " stroke="rgba(50,50,50,1)" stroke-width="2" fill-opacity="1" fill="#ffffff"></path><g id="SvgjsG1069"><text id="SvgjsText1070" font-family="微软雅黑" text-anchor="middle" font-size="13px" width="40px" fill="#323232" font-weight="400" align="middle" lineHeight="125%" font-style="" opacity="1" y="4.375" transform="rotate(0)"></text></g></g><g id="SvgjsG1071" transform="matrix(-1.8369701987210297e-16,-1,1,-1.8369701987210297e-16,25.38005759499289,182.7747680884012)"><path id="SvgjsPath1072" d="M95.27476834849415 0Q86.27476834849415 0 86.27476834849415 9L86.27476834849415 111.05215690151982Q86.27476834849415 120.05215690151982 73.27476834849415 120.05215690151982Q86.27476834849415 120.05215690151982 86.27476834849415 129.05215690151982L86.27476834849415 231.10431380303964Q86.27476834849415 240.10431380303964 95.27476834849415 240.10431380303964 " stroke="rgba(50,50,50,1)" stroke-width="2" fill="none"></path><path id="SvgjsPath1073" d="M0 0L95.27476834849415 0L95.27476834849415 240.10431380303964L0 240.10431380303964Z " stroke="none" fill="none"></path><g id="SvgjsG1074"><text id="SvgjsText1075" font-family="微软雅黑" text-anchor="end" font-size="13px" width="69px" fill="#323232" font-weight="400" align="middle" lineHeight="125%" font-style="" opacity="1" y="109.42715690151982" transform="rotate(0)"></text></g></g><g id="SvgjsG1076" transform="translate(25.01089015151524,169.375)"><path id="SvgjsPath1077" d="M0 0L485 0L485 30L0 30Z " stroke="none" fill="none"></path><g id="SvgjsG1078"><text id="SvgjsText1079" font-family="微软雅黑" text-anchor="middle" font-size="13px" width="485px" fill="#323232" font-weight="400" align="middle" lineHeight="125%" font-style="" opacity="1" y="4.375" transform="rotate(0)"><tspan id="SvgjsTspan1080" dy="16" x="242.5"><tspan id="SvgjsTspan1081" style="text-decoration:;">0            1              2              3              4              5              6             7             8</tspan></tspan></text></g></g><g id="SvgjsG1082" transform="translate(25.01089015151524,25)"><path id="SvgjsPath1083" d="M0 0L485 0L485 30L0 30Z " stroke="none" fill="none"></path><g id="SvgjsG1084"><text id="SvgjsText1085" font-family="微软雅黑" text-anchor="middle" font-size="13px" width="485px" fill="#323232" font-weight="400" align="middle" lineHeight="125%" font-style="" opacity="1" y="4.375" transform="rotate(0)"><tspan id="SvgjsTspan1086" dy="16" x="242.5"><tspan id="SvgjsTspan1087" style="text-decoration:;">0            1              2              3              4              5              6             7             8</tspan></tspan></text></g></g><g id="SvgjsG1088" transform="translate(85.0108901515153,96.25)"><path id="SvgjsPath1089" d="M0 0L120 0L120 40L0 40Z " stroke="none" fill="none"></path><g id="SvgjsG1090"><text id="SvgjsText1091" font-family="微软雅黑" text-anchor="middle" font-size="13px" width="120px" fill="#323232" font-weight="400" align="middle" lineHeight="125%" font-style="" opacity="1" y="9.375" transform="rotate(0)"><tspan id="SvgjsTspan1092" dy="16" x="60"><tspan id="SvgjsTspan1093" style="text-decoration:;">int a</tspan></tspan></text></g></g><g id="SvgjsG1094" transform="matrix(-1.8369701987210297e-16,-1,1,-1.8369701987210297e-16,25.444602272727266,210.27476904207552)"><path id="SvgjsPath1095" d="M95.27476834849415 0Q86.27476834849415 0 86.27476834849415 9L86.27476834849415 111.05215690151982Q86.27476834849415 120.05215690151982 73.27476834849415 120.05215690151982Q86.27476834849415 120.05215690151982 86.27476834849415 129.05215690151982L86.27476834849415 231.10431380303964Q86.27476834849415 240.10431380303964 95.27476834849415 240.10431380303964 " stroke="rgba(255,0,0,1)" stroke-width="2" fill="none"></path><path id="SvgjsPath1096" d="M0 0L95.27476834849415 0L95.27476834849415 240.10431380303964L0 240.10431380303964Z " stroke="none" fill="none"></path><g id="SvgjsG1097"><text id="SvgjsText1098" font-family="微软雅黑" text-anchor="end" font-size="13px" width="69px" fill="#323232" font-weight="400" align="middle" lineHeight="125%" font-style="" opacity="1" y="109.42715690151982" transform="rotate(0)"></text></g></g><g id="SvgjsG1099" transform="translate(85.01089015151524,123.75)"><path id="SvgjsPath1100" d="M0 0L120 0L120 40L0 40Z " stroke="none" fill="none"></path><g id="SvgjsG1101"><text id="SvgjsText1102" font-family="微软雅黑" text-anchor="middle" font-size="13px" width="120px" fill="#ff0000" font-weight="400" align="middle" lineHeight="125%" font-style="" opacity="1" y="9.375" transform="rotate(0)"><tspan id="SvgjsTspan1103" dy="16" x="60"><tspan id="SvgjsTspan1104" style="text-decoration:;">一次读取</tspan></tspan></text></g></g><g id="SvgjsG1105" transform="matrix(-1.8369701987210297e-16,-1,1,-1.8369701987210297e-16,86.63005759499289,326.52476141268096)"><path id="SvgjsPath1106" d="M95.27476834849415 0Q86.27476834849415 0 86.27476834849415 9L86.27476834849415 111.05215690151982Q86.27476834849415 120.05215690151982 73.27476834849415 120.05215690151982Q86.27476834849415 120.05215690151982 86.27476834849415 129.05215690151982L86.27476834849415 231.10431380303964Q86.27476834849415 240.10431380303964 95.27476834849415 240.10431380303964 " stroke="rgba(50,50,50,1)" stroke-width="2" fill="none"></path><path id="SvgjsPath1107" d="M0 0L95.27476834849415 0L95.27476834849415 240.10431380303964L0 240.10431380303964Z " stroke="none" fill="none"></path><g id="SvgjsG1108"><text id="SvgjsText1109" font-family="微软雅黑" text-anchor="end" font-size="13px" width="69px" fill="#323232" font-weight="400" align="middle" lineHeight="125%" font-style="" opacity="1" y="109.42715690151982" transform="rotate(0)"></text></g></g><g id="SvgjsG1110" transform="translate(144.66823425758525,239.0247683484941)"><path id="SvgjsPath1111" d="M0 0L120 0L120 40L0 40Z " stroke="none" fill="none"></path><g id="SvgjsG1112"><text id="SvgjsText1113" font-family="微软雅黑" text-anchor="middle" font-size="13px" width="120px" fill="#323232" font-weight="400" align="middle" lineHeight="125%" font-style="" opacity="1" y="9.375" transform="rotate(0)"><tspan id="SvgjsTspan1114" dy="16" x="60"><tspan id="SvgjsTspan1115" style="text-decoration:;">int a</tspan></tspan></text></g></g><g id="SvgjsG1116" transform="matrix(-1.8369701987210297e-16,-1,1,-1.8369701987210297e-16,27.319602272727266,358.39976141268096)"><path id="SvgjsPath1117" d="M95.27476834849415 0Q86.27476834849415 0 86.27476834849415 9L86.27476834849415 111.05215690151982Q86.27476834849415 120.05215690151982 73.27476834849415 120.05215690151982Q86.27476834849415 120.05215690151982 86.27476834849415 129.05215690151982L86.27476834849415 231.10431380303964Q86.27476834849415 240.10431380303964 95.27476834849415 240.10431380303964 " stroke="rgba(0,255,0,1)" stroke-width="2" fill="none"></path><path id="SvgjsPath1118" d="M0 0L95.27476834849415 0L95.27476834849415 240.10431380303964L0 240.10431380303964Z " stroke="none" fill="none"></path><g id="SvgjsG1119"><text id="SvgjsText1120" font-family="微软雅黑" text-anchor="end" font-size="13px" width="69px" fill="#323232" font-weight="400" align="middle" lineHeight="125%" font-style="" opacity="1" y="109.42715690151982" transform="rotate(0)"></text></g></g><g id="SvgjsG1121" transform="matrix(-1.8369701987210297e-16,-1,1,-1.8369701987210297e-16,269.19460227272725,357.14976141268096)"><path id="SvgjsPath1122" d="M95.27476834849415 0Q86.27476834849415 0 86.27476834849415 9L86.27476834849415 111.05215690151982Q86.27476834849415 120.05215690151982 73.27476834849415 120.05215690151982Q86.27476834849415 120.05215690151982 86.27476834849415 129.05215690151982L86.27476834849415 231.10431380303964Q86.27476834849415 240.10431380303964 95.27476834849415 240.10431380303964 " stroke="rgba(0,255,0,1)" stroke-width="2" fill="none"></path><path id="SvgjsPath1123" d="M0 0L95.27476834849415 0L95.27476834849415 240.10431380303964L0 240.10431380303964Z " stroke="none" fill="none"></path><g id="SvgjsG1124"><text id="SvgjsText1125" font-family="微软雅黑" text-anchor="end" font-size="13px" width="69px" fill="#323232" font-weight="400" align="middle" lineHeight="125%" font-style="" opacity="1" y="109.42715690151982" transform="rotate(0)"></text></g></g><g id="SvgjsG1126" transform="translate(85.0108901515153,276.875)"><path id="SvgjsPath1127" d="M0 0L120 0L120 40L0 40Z " stroke="none" fill="none"></path><g id="SvgjsG1128"><text id="SvgjsText1129" font-family="微软雅黑" text-anchor="middle" font-size="13px" width="120px" fill="#00ff00" font-weight="400" align="middle" lineHeight="125%" font-style="" opacity="1" y="9.375" transform="rotate(0)"><tspan id="SvgjsTspan1130" dy="16" x="60"><tspan id="SvgjsTspan1131" style="text-decoration:;">一次读取</tspan></tspan></text></g></g><g id="SvgjsG1132" transform="translate(328.95495478793634,279.0247683484941)"><path id="SvgjsPath1133" d="M0 0L120 0L120 40L0 40Z " stroke="none" fill="none"></path><g id="SvgjsG1134"><text id="SvgjsText1135" font-family="微软雅黑" text-anchor="middle" font-size="13px" width="120px" fill="#00ff00" font-weight="400" align="middle" lineHeight="125%" font-style="" opacity="1" y="9.375" transform="rotate(0)"><tspan id="SvgjsTspan1136" dy="16" x="60"><tspan id="SvgjsTspan1137" style="text-decoration:;">二次读取</tspan></tspan></text></g></g></svg>